# xmcd CD database file
#
# Track frame offsets:
#	151
#	30648
#	69195
#	111300
#	146118
#	185202
#	214782
#	234334
#
# Disc length: 3467 seconds
#
# Revision: 1
# Processed by: cddbd v1.5.1PL0 Copyright (c) Steve Scherf et al.
# Submitted via: CDex 1.51
#
DISCID=740d8908
DTITLE=Carlos Barretto - Olhar
DYEAR=1999
DGENRE=Jazz
TTITLE0=Olhar
TTITLE1=Olivais
TTITLE2=Sweet House
TTITLE3=Mira Qui Parla
TTITLE4=Não Sei Porquê
TTITLE5=Dedadas
TTITLE6=Narayama
TTITLE7=Mo-Fo
EXTD=YEAR: 1999
EXTT0=
EXTT1=
EXTT2=
EXTT3=
EXTT4=
EXTT5=
EXTT6=
EXTT7=
PLAYORDER=
